# xmcd
#
# Track frame offsets:
#	150
#	20560
#	43647
#	66755
#
# Disc length: 1081 seconds
#
# Revision: 1
# Processed by: cddbd v1.5PL3 Copyright (c) Steve Scherf et al.
# Submitted via: CDex 1.50Beta5
#
DISCID=2e043704
DTITLE=鈴木朋 - Cocktail
DYEAR=2002
DGENRE=Pop
TTITLE0=恋
TTITLE1=薔薇色の日々
TTITLE2=大事なきもち
TTITLE3=Driving High
EXTD=
EXTT0=
EXTT1=
EXTT2=
EXTT3=
PLAYORDER=
